<svg fill="none" height="24" viewBox="0 0 24 24" width="24" xmlns="http://www.w3.org/2000/svg"><g stroke="#000" stroke-linecap="round" stroke-linejoin="round" stroke-width="2"><path d="m17 16c2.7614 0 5-2.2386 5-5 0-2.76142-2.2386-5-5-5-.4029 0-.7947.04766-1.17.13765m0 0c-.6062-2.3786-2.7627-4.13765-5.33-4.13765-3.03757 0-5.5 2.46243-5.5 5.5 0 .20871.01163.4147.03426.61736m10.79574-1.97971-1.33.36235m-9.46574 1.61736c-1.74258.43202-3.03426 2.00644-3.03426 3.88264 0 2.2091 1.79086 4 4 4h1m-1.96574-7.88264s.15324.88264.46574 1.38264"/><path d="m12 22v-10m0 10-3-3m3 3 3-3"/></g></svg>